<svg width="57" height="44" viewBox="0 0 57 44" fill="none" xmlns="http://www.w3.org/2000/svg">
<path d="M41.7987 11.9007C42.5955 12.0746 43.367 12.3487 44.0948 12.7167C45.4163 13.3746 46.6033 14.2735 47.5948 15.3671C47.6569 15.446 47.7351 15.5107 47.8242 15.5571C47.9132 15.6035 48.0111 15.6304 48.1114 15.6361C48.2123 15.644 48.3138 15.6316 48.4099 15.5997C48.506 15.5677 48.5946 15.5168 48.6707 15.4499L56.6645 9.15442C56.8283 9.02057 56.9329 8.82763 56.9556 8.6173C56.9827 8.39673 56.924 8.17418 56.7916 7.99571C54.7721 5.5075 52.2256 3.49847 49.3357 2.11353C46.9746 0.964555 44.4206 0.264129 41.8036 0.0478516L41.7987 11.9007Z" fill="#FEB100"/>
<path d="M38.5922 31.3962C36.2036 31.0923 34.0077 29.9277 32.4161 28.1208C30.8245 26.3139 29.9465 23.9886 29.9465 21.5807C29.9465 19.1728 30.8245 16.8475 32.4161 15.0406C34.0077 13.2336 36.2036 12.0691 38.5922 11.7652V0C36.1277 0.138275 33.7064 0.706074 31.4373 1.6778C28.8517 2.76163 26.497 4.32951 24.4998 6.29711C22.5225 8.27459 20.9469 10.6163 19.86 13.1929C18.7259 15.8474 18.1412 18.7042 18.1412 21.5909C18.1412 24.4776 18.7259 27.3344 19.86 29.989C21.4466 33.7107 24.0407 36.9156 27.3502 39.2428C30.6597 41.57 34.5532 42.9271 38.5922 43.1614V31.3962Z" fill="white"/>
<path d="M56.703 34.0067L48.7092 27.6686C48.5548 27.5349 48.3537 27.4679 48.1499 27.4824C48.0494 27.488 47.9513 27.5149 47.8619 27.5612C47.7726 27.6076 47.6941 27.6724 47.6317 27.7514C46.6459 28.8708 45.4498 29.7855 44.1112 30.4436C43.3773 30.8116 42.6005 31.087 41.7987 31.2636V43.1157C44.4232 42.9052 46.985 42.2045 49.3513 41.05C52.2477 39.648 54.8002 37.6258 56.8276 35.1269C56.8948 35.0477 56.9442 34.9551 56.9725 34.8552C57.0008 34.7553 57.0073 34.6505 56.9917 34.5479C56.9816 34.4431 56.9509 34.3414 56.9013 34.2485C56.8518 34.1556 56.7844 34.0734 56.703 34.0067Z" fill="#FEB100"/>
<path d="M21.1161 21.5517C21.1161 9.90706 11.6438 0.00585938 0 0.00585938V11.7431C3.54095 11.7431 8.6982 15.7244 8.6982 21.5509C8.6982 28.5983 2.28136 31.4422 0 31.4422V43.1C11.6438 43.1 21.1161 33.1955 21.1161 21.5517Z" fill="white"/>
</svg>
